<?xml version="1.0" encoding="UTF-8" standalone="no"?>
<svg
   width="800"
   height="800"
   viewBox="0 0 24 24"
   version="1.1"
   id="svg1"
   xmlns="http://www.w3.org/2000/svg"
   xmlns:svg="http://www.w3.org/2000/svg">
  <defs
     id="defs1" />
  <rect
     style="fill:#ffffff;stroke:none;stroke-width:0.113386;stroke-linejoin:bevel;stroke-miterlimit:4.2"
     id="rect1"
     width="24"
     height="24"
     x="0"
     y="0"
     ry="3.8380063"
     rx="3.8380063" />
  <path
     d="m 5,15 v 2 H 3 V 15 Z M 3,21 H 5 V 19 H 3 Z m 2,-4 v 2 H 7 V 17 Z M 9,11 H 7 v 2 H 5 v 2 h 4 z m -6,0 v 2 h 2 v -2 z m 6,8 H 7 v 2 h 5 V 19 H 11 V 17 H 9 Z M 13,4 h -2 v 2 h 2 z m -2,7 h 2 V 8 H 11 Z M 4,9 A 1,1 0 0 1 3,8 V 4 A 1,1 0 0 1 4,3 H 8 A 1,1 0 0 1 9,4 V 8 A 1,1 0 0 1 8,9 Z M 5,7 H 7 V 5 H 5 Z M 21,4 v 8 H 19 V 9 H 16 A 1,1 0 0 1 15,8 V 4 a 1,1 0 0 1 1,-1 h 4 a 1,1 0 0 1 1,1 z m -2,1 h -2 v 2 h 2 z m 2,11 v 4 a 1,1 0 0 1 -1,1 h -4 a 1,1 0 0 1 -1,-1 v -3 h -4 v -4 h 2 v 2 h 1 v -4 h 2 v 4 h 4 a 1,1 0 0 1 1,1 z m -2,1 h -2 v 2 h 2 z"
     id="path1" />
</svg>
